<svg width="111" height="111" viewBox="0 0 111 111" fill="none" xmlns="http://www.w3.org/2000/svg">
<circle cx="55.5" cy="55.5" r="55.5" fill="#F59E0B"/>
<path d="M48.5994 95.8764C45.3715 96.6665 42.1385 96.011 39.6533 93.8967L34.8269 89.7915C32.4321 87.7553 30.3127 85.5794 27.7156 83.7795C25.9897 82.372 24.5165 80.8403 23.859 78.6746C22.9251 75.5957 23.297 72.3945 24.5637 69.4481C22.2964 65.5493 22.6724 60.7362 26.041 57.7384C25.4534 54.7005 25.2849 51.8219 24.9654 48.7861L23.5128 34.9817L22.2255 22.1605C22.1197 21.1034 22.3334 20.1531 23.1018 19.4278C24.3295 18.5114 25.6373 17.9001 27.1557 17.4768C36.0689 14.9922 57.3515 13.1808 77.4173 17.0002C79.3333 17.3649 81.0695 17.9196 82.7359 18.8124C84.1413 19.5654 84.7988 20.8989 84.6848 22.4851L83.8752 33.7171L81.9736 60.6242C86.0614 61.3782 87.812 64.9699 87.9599 68.8871C87.9722 73.1455 86.0634 77.2035 82.7605 79.8797C79.8717 82.2529 76.0376 83.0213 72.781 81.0673C68.5165 89.1915 60.8258 94.3303 51.8211 95.3936L48.6035 95.8785L48.5994 95.8764Z" fill="#F59E0B"/>
<path d="M72.086 24.5173C59.8442 26.0973 47.6363 26.0953 35.4931 24.5245C32.3823 24.1217 29.4883 23.4982 26.5645 22.5581C25.5299 22.2253 24.5889 21.8041 23.8821 20.9637C24.3002 20.3627 24.895 19.9323 25.608 19.661C32.5087 17.0362 43.8248 16.4249 51.4857 16.3571C58.8024 16.2924 65.9322 16.5985 73.139 17.6957C75.8738 18.1128 78.4483 18.6224 80.9838 19.5984C81.7512 19.8932 82.5063 20.2682 82.9131 20.9904C82.2628 21.8431 81.3587 22.3044 80.392 22.6455C77.7045 23.5958 75.0652 24.1331 72.087 24.5173H72.086Z" fill="#111113"/>
<path d="M72.3328 78.6573C70.1271 83.4735 66.7903 87.439 62.3573 90.1933C58.5582 92.5531 54.3974 93.564 50.0097 94.1229C47.9118 94.39 45.9825 95.0043 43.8682 94.4033C40.5489 93.4602 36.3923 89.0951 33.4674 86.4702L32.0045 85.1573L27.9896 82.0352C24.0755 78.8597 24.1433 73.6757 26.389 69.214C23.5947 65.8885 24.1915 61.0148 27.6599 58.3416C27.1102 55.575 26.914 52.909 26.613 50.0756L25.2096 36.8897L23.7046 22.8901C27.6958 25.0106 32.3969 25.6013 36.8587 26.2465C46.6061 27.4094 56.2816 27.5327 66.0814 26.7159C69.9894 26.4016 73.6652 25.9064 77.4345 25.0445C79.4666 24.5791 81.3107 23.9678 83.1846 22.9045L82.0915 37.654L80.383 61.964C82.9123 61.9147 85.1447 63.4311 85.9224 65.8412C86.9672 69.0804 86.3724 72.5425 84.6372 75.4325C83.5616 77.2539 82.1511 78.7343 80.3059 79.7247C77.5927 81.1136 74.4008 81.0561 72.3338 78.6573H72.3328Z" fill="#111113"/>
<path d="M27.0944 67.6994C25.6428 65.3909 25.7795 62.2421 27.8382 60.1751C28.3262 62.6603 28.1321 65.1968 27.0944 67.6994Z" fill="#F59E0B"/>
<path d="M65.1417 33.0346C64.7462 31.7432 63.3562 31.1011 64.212 30.1077C64.5387 29.7276 65.0554 29.4666 65.6513 29.6341C66.0612 29.7491 66.4372 30.2803 66.4968 30.8587C66.5893 31.7565 66.0725 32.5774 65.1407 33.0356L65.1417 33.0346Z" fill="#F59E0B"/>
<path d="M56.9699 30.4635C57.1343 30.933 56.2292 31.3121 55.8244 31.1549C55.5358 31.043 55.4433 30.8693 55.4207 30.6505C55.3971 30.4183 55.5604 30.1728 55.9025 30.1194C56.1439 30.0814 56.823 30.0423 56.9699 30.4625V30.4635Z" fill="#F59E0B"/>
<path d="M70.3882 47.3347C67.6554 42.4589 71.3888 38.4985 70.2495 37.5626C70.0666 37.4126 69.67 37.3335 69.4111 37.4732C63.0478 40.9066 59.0175 38.8807 55.2945 40.2758C52.5186 41.3165 49.7838 42.1867 46.7716 42.2596C41.9853 42.3757 37.1722 40.7956 33.9669 37.1958C32.9734 37.353 32.357 37.9982 31.6954 38.591C30.1359 39.9882 29.0315 41.5579 28.0566 43.5849L27.3056 36.2651C27.0477 33.7512 35.4832 29.9901 41.7377 35.9435C43.6331 37.7475 45.9395 38.931 48.5274 39.0471C49.3348 39.0831 50.1341 39.08 50.6098 38.3177C48.2787 38.3208 46.2549 37.7732 44.4971 36.4346L40.4401 33.3443C38.4132 31.8013 36.0113 31.2814 33.3412 31.7283C35.2726 29.9921 37.9858 29.8103 40.3405 30.6825C42.8636 31.6174 44.9512 33.7049 48.1668 34.8802C49.6533 35.4237 51.1594 35.8254 52.761 35.738C55.2503 35.6014 57.4652 34.6265 59.5004 33.2714C60.9839 32.2831 62.6102 32.3653 62.8115 32.993C62.9995 33.5776 61.9783 33.8508 62.1674 34.8812C62.4098 36.2055 65.011 36.4007 66.4894 35.8469L71.9158 33.8128L75.0184 32.8389C76.8912 32.2513 80.6533 33.3731 80.4869 35.662L78.5524 62.2034C76.508 62.9369 74.8427 64.0957 73.4578 65.7734C71.5932 64.6618 70.9018 62.6328 71.2419 60.5946L72.3391 55.5205C72.8096 53.3436 72.5569 51.2047 71.473 49.2702L70.3892 47.3357L70.3882 47.3347Z" fill="#F59E0B"/>
<path d="M74.7533 41.7806C76.546 44.2729 76.5953 47.9354 76.0642 48.1254C75.9193 48.1768 75.72 48.0401 75.68 47.7946C75.4036 46.0728 75.0317 44.4229 74.3167 42.8377C73.8842 41.8782 73.1753 41.2258 72.4983 40.2375C73.4856 40.257 74.1842 40.9905 74.7523 41.7806H74.7533Z" fill="#111113"/>
<path d="M78.2277 44.3223C77.6771 43.4131 77.6391 42.5009 77.3535 41.6132C76.8973 40.1924 76.1679 39.0603 75.082 37.8234C77.6247 38.1069 79.0825 41.7026 78.2267 44.3234L78.2277 44.3223Z" fill="#111113"/>
<path d="M76.1027 51.454C76.3256 54.5114 74.647 56.2866 74.8134 54.9614L75.363 50.5993C75.8592 50.6188 76.0709 51.0133 76.1027 51.453V51.454Z" fill="#111113"/>
<path d="M75.6225 79.0611C73.0449 78.5115 72.9226 75.9565 72.0463 76.0798C71.8152 76.1126 71.7001 76.2462 71.5902 76.5267C68.2914 84.917 62.1859 90.2694 53.2213 92.1936C54.4048 91.0605 55.5852 89.4126 54.7182 88.8383C53.8511 88.264 53.4977 91.2135 49.0709 92.6806C47.0388 93.3545 44.9851 93.3905 43.0342 92.4761C41.5805 91.795 40.509 90.7327 39.2978 89.7198C37.5646 88.2712 35.964 86.8401 34.346 85.2601C32.8553 83.8043 31.2578 82.6178 29.5956 81.4158C25.5109 78.4632 25.6444 73.9634 27.8573 69.6774C29.5257 66.4464 29.9305 62.9699 29.3788 59.3475L28.4131 53.0047C27.6827 48.2111 29.3624 41.9196 33.5673 38.9188C39.307 44.4017 47.6911 44.7418 54.7962 42.0316C56.4924 41.2169 58.1967 40.9375 60.0953 41.0361C63.0386 41.1902 65.8052 40.7341 68.6294 39.5013C67.3781 42.7908 67.6575 46.1656 69.6043 49.0371C70.8998 50.9479 71.3981 53.0365 70.8628 55.3408L69.8509 59.6968C69.0937 62.9545 70.5125 66.6416 73.8678 67.5015L75.8208 65.5084C76.9663 64.3393 78.4271 63.5626 80.0555 63.4455C82.5344 63.2678 84.3991 64.9074 84.7905 67.3576C85.5024 71.8122 83.3306 76.3551 79.3641 78.6019C78.2422 79.2378 76.8378 79.32 75.6235 79.0611H75.6225Z" fill="#F59E0B"/>
<path d="M55.2456 67.0778C53.0923 68.0322 50.716 66.8898 50.0524 64.6625C49.2582 61.9945 49.5808 59.0871 50.8455 56.5681C52.0331 57.4927 53.1221 58.3803 54.6651 58.9392C54.5983 57.0201 53.9645 55.2531 53.4035 53.3802C54.5644 52.3056 56.4198 52.0961 57.7338 52.9354C58.8238 53.6319 59.4505 54.8647 59.7525 56.0965C60.3247 58.4337 59.8881 60.7401 58.9676 62.9232C58.2187 64.6995 57.1153 66.2487 55.2445 67.0767L55.2456 67.0778Z" fill="#111113"/>
<path d="M34.6392 66.4119C31.2356 65.701 30.6593 60.4749 31.6517 57.0714L35.7457 57.5388C35.1508 56.0553 34.2098 54.878 33.3612 53.5003C34.1512 52.5531 35.2721 52.3333 36.5326 52.5911C39.7687 53.2527 41.4063 60.0291 38.2062 64.722C37.4028 65.9003 36.0498 66.7068 34.6392 66.4119Z" fill="#111113"/>
<path d="M62.0222 53.2527C61.2383 53.7551 60.5449 52.1319 60.0024 51.4754C57.1156 47.9855 53.258 49.1526 52.7751 48.5557C52.1597 47.7944 54.9109 45.0124 57.9478 45.6031C59.2967 45.8651 60.5408 46.7712 61.2722 47.9157C62.3674 49.6283 62.7146 52.8099 62.0222 53.2527Z" fill="#111113"/>
<path d="M38.6674 48.2365C38.1332 48.9074 36.9476 48.1564 35.7343 48.3269C32.3852 48.7964 30.988 50.8973 30.0254 50.3652C28.996 49.796 30.237 46.5085 32.8639 44.8001C34.3135 43.857 36.0785 44.0409 37.3729 45.2141C38.2051 45.9692 39.1266 47.6602 38.6674 48.2375V48.2365Z" fill="#111113"/>
<path d="M40.8546 69.2334C42.6452 70.4025 44.2068 68.7968 44.6033 69.893C45.1386 71.3723 41.5778 71.7586 39.6885 70.156C38.5338 69.1769 38.1866 67.34 39.0331 66.0846C39.9248 64.7614 41.4627 64.3258 42.9699 64.4943C45.4632 64.7737 47.1111 67.6174 45.8474 67.9955C45.5341 68.089 45.08 67.9554 44.928 67.5229C44.2325 65.5442 41.4771 65.6213 40.4929 66.55C39.6947 67.3041 39.9258 68.6252 40.8556 69.2324L40.8546 69.2334Z" fill="#111113"/>
<path d="M78.8287 72.7145C78.2154 75.5376 75.158 75.8489 75.1714 75.0229C75.1816 74.3829 76.9127 74.7589 77.6257 72.8141C78.2113 71.2166 77.6914 69.8605 76.8788 69.8122C76.623 69.7968 76.3692 70.0033 76.2408 70.2951L75.6943 71.532C75.5905 71.7662 75.2823 71.8258 75.1292 71.7909C74.1779 71.5741 75.9419 68.4253 77.5384 66.8956C78.6921 65.7892 80.5495 65.3803 81.8706 66.3172C83.5709 67.5233 83.3048 70.8077 82.4264 70.7502C82.2066 70.7358 82.0206 70.5273 82.0278 70.2273L82.0576 68.9133C82.0782 68.0164 81.619 67.0682 80.6902 66.8699C79.3968 66.5936 78.1917 67.3815 77.7048 68.6092C78.8975 69.7352 79.1636 71.1868 78.8318 72.7145H78.8287Z" fill="#111113"/>
<path d="M39.9082 86.7751C39.675 86.5193 39.8599 86.169 39.976 86.0477C40.6777 85.3132 41.2232 88.0367 45.312 88.1918C47.8146 88.2863 50.0193 87.1809 51.2994 84.9773C51.4206 84.7687 51.6733 84.6259 51.8716 84.6947C52.7808 85.0112 50.8936 88.0408 48.1588 88.9808C45.2021 89.9968 42.0246 89.0959 39.9093 86.7761L39.9082 86.7751Z" fill="#111113"/>
<path d="M60.5371 70.8555C60.6305 71.3897 60.4302 71.9229 60.1313 72.1541C59.7285 72.4664 59.2067 72.4191 58.8255 72.228C58.3386 71.9846 58.1793 71.4627 58.2697 70.8833C58.3694 70.2453 58.8378 69.9453 59.3649 69.8826C59.9813 69.8097 60.4025 70.0901 60.536 70.8555H60.5371Z" fill="#111113"/>
<path d="M62.6231 71.2818C63.2597 71.2818 63.7758 70.7658 63.7758 70.1292C63.7758 69.4926 63.2597 68.9765 62.6231 68.9765C61.9865 68.9765 61.4705 69.4926 61.4705 70.1292C61.4705 70.7658 61.9865 71.2818 62.6231 71.2818Z" fill="#111113"/>
<path d="M60.1903 68.7155C60.7316 68.7155 61.1704 68.2767 61.1704 67.7355C61.1704 67.1942 60.7316 66.7554 60.1903 66.7554C59.649 66.7554 59.2102 67.1942 59.2102 67.7355C59.2102 68.2767 59.649 68.7155 60.1903 68.7155Z" fill="#111113"/>
<path d="M31.3342 70.1016C31.6667 70.1016 31.9362 69.8321 31.9362 69.4996C31.9362 69.1671 31.6667 68.8976 31.3342 68.8976C31.0017 68.8976 30.7322 69.1671 30.7322 69.4996C30.7322 69.8321 31.0017 70.1016 31.3342 70.1016Z" fill="#111113"/>
<path d="M29.9758 72.2536C30.2975 72.2536 30.5583 71.9928 30.5583 71.6711C30.5583 71.3494 30.2975 71.0886 29.9758 71.0886C29.6541 71.0886 29.3933 71.3494 29.3933 71.6711C29.3933 71.9928 29.6541 72.2536 29.9758 72.2536Z" fill="#111113"/>
<path d="M31.7455 72.0728C32.0575 72.0728 32.3105 71.8198 32.3105 71.5078C32.3105 71.1957 32.0575 70.9427 31.7455 70.9427C31.4334 70.9427 31.1804 71.1957 31.1804 71.5078C31.1804 71.8198 31.4334 72.0728 31.7455 72.0728Z" fill="#111113"/>
<path d="M61.7557 75.6745C61.7414 76.9505 59.7062 76.103 58.1528 75.1157C56.3889 78.8275 53.275 82.8105 49.8879 85.0347C46.5008 87.2589 42.7407 86.6928 40.1086 83.8357C37.9255 81.4667 36.6157 78.5367 36.0239 75.2883C35.0551 74.864 34.2579 74.3072 33.4227 73.5993L31.4892 74.7674C31.1461 74.9749 30.8061 74.9267 30.5143 74.7171C30.2996 74.563 30.0777 73.9856 30.4927 73.7853C34.2887 71.9546 33.6323 69.2824 34.6791 69.302C35.6263 69.3194 35.2288 70.9334 34.3144 72.3501C35.837 73.7678 37.6245 74.4664 39.5487 75.0427C43.8584 76.3321 48.2472 76.3773 52.6196 75.2718C54.0805 74.902 55.4838 74.5763 56.7207 73.6569C55.7304 72.0922 54.9106 69.9882 56.1084 69.8732C56.4639 69.8393 56.7711 70.0992 56.8748 70.5409C57.3608 72.5987 58.9008 74.3801 60.975 74.8609C61.4516 74.9718 61.7598 75.2266 61.7547 75.6766L61.7557 75.6745Z" fill="#111113"/>
<path d="M49.5575 78.8772C46.2074 79.7905 42.2603 79.4679 39.8882 76.691C44.7937 77.8981 48.6134 77.6824 53.4624 76.5636C52.358 77.6896 51.0821 78.4622 49.5585 78.8782L49.5575 78.8772Z" fill="#F59E0B"/>
<path d="M50.4176 82.7528C48.6085 84.6883 45.5778 85.5379 43.2324 84.2527C44.8628 82.4313 48.3054 81.7101 50.4176 82.7528Z" fill="#F59E0B"/>
</svg>
