<svg width="160" height="160" viewBox="0 0 160 160" fill="none" xmlns="http://www.w3.org/2000/svg">
<circle cx="80" cy="80" r="80" fill="#FF3500"/>
<path d="M70.0534 138.2C65.4005 139.339 60.7403 138.394 57.1581 135.347L50.2011 129.429C46.7492 126.494 43.6942 123.358 39.9506 120.763C37.4628 118.735 35.3392 116.527 34.3915 113.405C33.0454 108.967 33.5815 104.353 35.4074 100.105C32.1391 94.4856 32.6811 87.5478 37.5368 83.2267C36.6898 78.8478 36.4469 74.6984 35.9864 70.3225L33.8925 50.4243L32.0369 31.9432C31.8844 30.4194 32.1924 29.0496 33.3001 28.0042C35.0697 26.6832 36.9549 25.8021 39.1436 25.192C51.9915 21.6106 82.669 18.9995 111.593 24.5049C114.355 25.0306 116.857 25.8303 119.259 27.1171C121.285 28.2026 122.233 30.1247 122.068 32.4112L120.901 48.6013L118.16 87.3864C124.053 88.4733 126.576 93.6504 126.789 99.2969C126.807 105.435 124.056 111.284 119.295 115.142C115.131 118.563 109.604 119.671 104.91 116.854C98.7627 128.565 87.677 135.972 74.6973 137.504L70.0593 138.203L70.0534 138.2Z" fill="#FF3500"/>
<path d="M103.907 35.3404C86.2607 37.618 68.6637 37.615 51.16 35.3508C46.676 34.7703 42.5045 33.8714 38.29 32.5164C36.7987 32.0366 35.4423 31.4295 34.4235 30.2181C35.0262 29.3518 35.8836 28.7314 36.9113 28.3404C46.8582 24.5568 63.1698 23.6757 74.2125 23.578C84.7591 23.4847 95.0362 23.926 105.424 25.5075C109.366 26.1088 113.077 26.8433 116.732 28.2501C117.838 28.6751 118.927 29.2156 119.513 30.2566C118.576 31.4857 117.273 32.1507 115.879 32.6423C112.005 34.0121 108.201 34.7866 103.908 35.3404H103.907Z" fill="#1C1C1E"/>
<path d="M104.264 113.38C101.085 120.322 96.2747 126.038 89.8848 130.008C84.4086 133.41 78.4112 134.867 72.0865 135.673C69.0626 136.058 66.2815 136.943 63.2339 136.077C58.4493 134.717 52.4578 128.425 48.2418 124.642L46.1331 122.749L40.3459 118.249C34.7038 113.672 34.8016 106.199 38.0387 99.7678C34.0108 94.9743 34.8712 87.9491 39.8705 84.096C39.0783 80.108 38.7954 76.2652 38.3615 72.181L36.3387 53.1743L34.1693 32.9947C39.9224 36.0512 46.6987 36.9027 53.1301 37.8327C67.1804 39.509 81.1271 39.6867 95.2529 38.5094C100.886 38.0563 106.185 37.3425 111.618 36.1001C114.547 35.4292 117.205 34.5481 119.906 33.0155L118.331 54.276L115.868 89.3174C119.514 89.2464 122.732 91.4321 123.853 94.9062C125.359 99.5753 124.501 104.566 122 108.731C120.45 111.357 118.416 113.491 115.757 114.918C111.846 116.921 107.245 116.838 104.265 113.38H104.264Z" fill="#1C1C1E"/>
<path d="M39.056 97.5848C36.9636 94.2573 37.1605 89.7185 40.1282 86.739C40.8316 90.3212 40.5517 93.9774 39.056 97.5848Z" fill="#FF3500"/>
<path d="M93.8982 47.6174C93.328 45.7559 91.3244 44.8304 92.558 43.3984C93.0289 42.8505 93.7738 42.4744 94.6327 42.7157C95.2235 42.8816 95.7655 43.6472 95.8514 44.4809C95.9847 45.7752 95.2398 46.9584 93.8967 47.6188L93.8982 47.6174Z" fill="#FF3500"/>
<path d="M82.1184 43.9114C82.3554 44.5881 81.0507 45.1346 80.4673 44.908C80.0512 44.7466 79.9179 44.4963 79.8853 44.1809C79.8512 43.8462 80.0867 43.4923 80.5798 43.4153C80.9278 43.3605 81.9067 43.3042 82.1184 43.9099V43.9114Z" fill="#FF3500"/>
<path d="M101.461 68.2302C97.522 61.2021 102.903 55.4934 101.261 54.1443C100.998 53.9281 100.426 53.8141 100.053 54.0155C90.8803 58.9645 85.071 56.0443 79.7043 58.0553C75.7031 59.5554 71.7611 60.8097 67.4192 60.9148C60.5199 61.0821 53.5821 58.8046 48.9619 53.6157C47.5299 53.8423 46.6414 54.7722 45.6877 55.6267C43.4398 57.6406 41.8479 59.9034 40.4425 62.8251L39.36 52.274C38.9883 48.6504 51.1476 43.229 60.163 51.8105C62.8952 54.4109 66.2197 56.1168 69.95 56.2842C71.1139 56.336 72.266 56.3316 72.9517 55.2328C69.5916 55.2372 66.6743 54.4479 64.1406 52.5184L58.2927 48.064C55.371 45.8397 51.9088 45.0904 48.06 45.7346C50.844 43.2319 54.755 42.9698 58.1491 44.2271C61.786 45.5747 64.7951 48.5837 69.4302 50.2778C71.573 51.0612 73.7439 51.6402 76.0526 51.5144C79.6407 51.3174 82.8334 49.9121 85.7669 47.9588C87.9053 46.5342 90.2495 46.6527 90.5397 47.5575C90.8107 48.4001 89.3388 48.794 89.6112 50.2793C89.9607 52.1881 93.7102 52.4695 95.8412 51.6713L103.663 48.7392L108.135 47.3354C110.835 46.4883 116.258 48.1054 116.018 51.4048L113.229 89.6626C110.282 90.7199 107.882 92.3903 105.886 94.8085C103.198 93.2063 102.201 90.2816 102.692 87.3436L104.273 80.0296C104.951 76.8917 104.587 73.8086 103.025 71.0201L101.463 68.2317L101.461 68.2302Z" fill="#FF3500"/>
<path d="M107.752 60.224C110.336 63.8166 110.407 69.0958 109.642 69.3698C109.433 69.4438 109.145 69.2469 109.088 68.8929C108.689 66.411 108.153 64.0328 107.123 61.7478C106.499 60.3647 105.477 59.4244 104.502 57.9998C105.925 58.0279 106.932 59.0853 107.751 60.224H107.752Z" fill="#1C1C1E"/>
<path d="M112.76 63.8882C111.967 62.5776 111.912 61.2626 111.5 59.9832C110.843 57.9352 109.791 56.3033 108.226 54.5203C111.891 54.929 113.992 60.112 112.759 63.8897L112.76 63.8882Z" fill="#1C1C1E"/>
<path d="M109.699 74.1679C110.02 78.5749 107.6 81.1338 107.84 79.2235L108.632 72.9358C109.348 72.964 109.653 73.5326 109.699 74.1664V74.1679Z" fill="#1C1C1E"/>
<path d="M109.004 113.962C105.289 113.17 105.113 109.487 103.85 109.664C103.516 109.712 103.351 109.904 103.192 110.309C98.4371 122.403 89.6364 130.118 76.7145 132.892C78.4204 131.258 80.1219 128.883 78.872 128.055C77.6222 127.227 77.1128 131.479 70.7318 133.594C67.8027 134.565 64.8425 134.617 62.0303 133.299C59.9349 132.317 58.3904 130.786 56.6445 129.326C54.1463 127.238 51.8391 125.175 49.5068 122.897C47.358 120.799 45.0553 119.089 42.6593 117.356C36.7714 113.1 36.9639 106.614 40.1537 100.436C42.5586 95.7785 43.1421 90.7673 42.3468 85.5459L40.9548 76.4031C39.9019 69.4934 42.3231 60.4247 48.3843 56.0991C56.6578 64.0024 68.743 64.4926 78.9846 60.5861C81.4295 59.4118 83.8862 59.009 86.6228 59.1512C90.8655 59.3733 94.8534 58.7158 98.9243 56.9388C97.1206 61.6804 97.5234 66.545 100.33 70.684C102.197 73.4384 102.915 76.449 102.144 79.7705L100.685 86.0494C99.5936 90.7451 101.639 96.0599 106.475 97.2994L109.29 94.4265C110.941 92.7413 113.047 91.6218 115.394 91.453C118.968 91.1968 121.655 93.5602 122.22 97.0921C123.246 103.513 120.115 110.061 114.398 113.3C112.781 114.217 110.756 114.335 109.006 113.962H109.004Z" fill="#FF3500"/>
<path d="M79.633 96.6889C76.5292 98.0646 73.104 96.4179 72.1473 93.2074C71.0026 89.3616 71.4676 85.1708 73.2906 81.5398C75.0024 82.8725 76.5721 84.152 78.7964 84.9576C78.7001 82.1913 77.7864 79.6443 76.9779 76.9447C78.6512 75.3957 81.3257 75.0936 83.2197 76.3035C84.7908 77.3075 85.6942 79.0845 86.1295 80.8601C86.9544 84.229 86.325 87.5535 84.9982 90.7003C83.9186 93.2607 82.3282 95.4938 79.6316 96.6874L79.633 96.6889Z" fill="#1C1C1E"/>
<path d="M49.9289 95.7293C45.0228 94.7045 44.1921 87.1715 45.6226 82.2654L51.5238 82.9392C50.6664 80.8008 49.3099 79.1038 48.0867 77.1179C49.2255 75.7526 50.8411 75.4357 52.6581 75.8074C57.3228 76.7611 59.6833 86.5288 55.0704 93.2933C53.9124 94.9918 51.9621 96.1543 49.9289 95.7293Z" fill="#1C1C1E"/>
<path d="M89.4015 76.7609C88.2716 77.485 87.272 75.1453 86.4901 74.199C82.3289 69.1686 76.7683 70.8508 76.0723 69.9904C75.1853 68.8931 79.151 64.883 83.5284 65.7345C85.4728 66.1121 87.2661 67.4182 88.3205 69.0679C89.8991 71.5365 90.3996 76.1226 89.4015 76.7609Z" fill="#1C1C1E"/>
<path d="M55.7353 69.5304C54.9653 70.4974 53.2564 69.4149 51.5075 69.6607C46.6799 70.3374 44.6659 73.3658 43.2784 72.5987C41.7946 71.7783 43.5834 67.0396 47.37 64.5769C49.4595 63.2175 52.0036 63.4826 53.8694 65.1737C55.0689 66.2621 56.3973 68.6996 55.7353 69.5318V69.5304Z" fill="#1C1C1E"/>
<path d="M58.8893 99.7959C61.4704 101.481 63.7213 99.1666 64.2929 100.747C65.0644 102.879 59.9318 103.436 57.2085 101.126C55.544 99.7145 55.0435 97.0667 56.2637 95.2571C57.5491 93.3498 59.7659 92.7219 61.9384 92.9648C65.5324 93.3675 67.9077 97.4665 66.0862 98.0115C65.6346 98.1462 64.98 97.9537 64.7609 97.3303C63.7583 94.4782 59.7867 94.5892 58.368 95.9279C57.2174 97.0149 57.5506 98.9193 58.8908 99.7944L58.8893 99.7959Z" fill="#1C1C1E"/>
<path d="M113.627 104.814C112.743 108.883 108.336 109.332 108.355 108.141C108.37 107.219 110.865 107.761 111.893 104.957C112.737 102.655 111.988 100.7 110.816 100.63C110.447 100.608 110.082 100.906 109.897 101.326L109.109 103.109C108.959 103.447 108.515 103.533 108.294 103.482C106.923 103.17 109.466 98.6312 111.767 96.4262C113.43 94.8314 116.107 94.242 118.012 95.5925C120.462 97.331 120.079 102.065 118.813 101.982C118.496 101.962 118.228 101.661 118.238 101.229L118.281 99.3346C118.311 98.0418 117.649 96.675 116.31 96.3892C114.446 95.9909 112.709 97.1267 112.007 98.8963C113.726 100.519 114.11 102.612 113.631 104.814H113.627Z" fill="#1C1C1E"/>
<path d="M57.5235 125.081C57.1873 124.713 57.4539 124.208 57.6212 124.033C58.6326 122.974 59.419 126.9 65.3128 127.124C68.9201 127.26 72.098 125.666 73.9432 122.49C74.1179 122.189 74.4822 121.983 74.768 122.083C76.0786 122.539 73.3582 126.906 69.4162 128.261C65.1543 129.725 60.574 128.427 57.525 125.083L57.5235 125.081Z" fill="#1C1C1E"/>
<path d="M87.2595 102.134C87.3943 102.904 87.1055 103.673 86.6746 104.006C86.0941 104.456 85.3418 104.388 84.7924 104.113C84.0905 103.762 83.861 103.009 83.9913 102.174C84.1349 101.255 84.8102 100.822 85.5699 100.732C86.4584 100.627 87.0655 101.031 87.2581 102.134H87.2595Z" fill="#1C1C1E"/>
<path d="M90.267 102.749C91.1846 102.749 91.9285 102.005 91.9285 101.087C91.9285 100.169 91.1846 99.4256 90.267 99.4256C89.3494 99.4256 88.6055 100.169 88.6055 101.087C88.6055 102.005 89.3494 102.749 90.267 102.749Z" fill="#1C1C1E"/>
<path d="M86.7584 99.0495C87.5386 99.0495 88.1711 98.417 88.1711 97.6368C88.1711 96.8565 87.5386 96.224 86.7584 96.224C85.9782 96.224 85.3457 96.8565 85.3457 97.6368C85.3457 98.417 85.9782 99.0495 86.7584 99.0495Z" fill="#1C1C1E"/>
<path d="M45.1646 101.048C45.6439 101.048 46.0324 100.659 46.0324 100.18C46.0324 99.7006 45.6439 99.3121 45.1646 99.3121C44.6854 99.3121 44.2969 99.7006 44.2969 100.18C44.2969 100.659 44.6854 101.048 45.1646 101.048Z" fill="#1C1C1E"/>
<path d="M43.208 104.15C43.6717 104.15 44.0476 103.774 44.0476 103.31C44.0476 102.846 43.6717 102.47 43.208 102.47C42.7443 102.47 42.3683 102.846 42.3683 103.31C42.3683 103.774 42.7443 104.15 43.208 104.15Z" fill="#1C1C1E"/>
<path d="M45.7577 103.889C46.2076 103.889 46.5722 103.524 46.5722 103.075C46.5722 102.625 46.2076 102.26 45.7577 102.26C45.3079 102.26 44.9433 102.625 44.9433 103.075C44.9433 103.524 45.3079 103.889 45.7577 103.889Z" fill="#1C1C1E"/>
<path d="M89.0164 109.08C88.9957 110.92 86.0621 109.698 83.8231 108.275C81.2804 113.625 76.792 119.366 71.9096 122.573C67.0272 125.779 61.6073 124.963 57.8134 120.844C54.6666 117.43 52.7785 113.206 51.9255 108.524C50.5291 107.912 49.3799 107.109 48.176 106.089L45.389 107.773C44.8944 108.072 44.4043 108.002 43.9837 107.7C43.6742 107.478 43.3543 106.646 43.9526 106.357C49.4243 103.718 48.4781 99.8666 49.9871 99.8947C51.3524 99.9199 50.7793 102.246 49.4614 104.288C51.656 106.332 54.2327 107.339 57.0063 108.17C63.2185 110.028 69.5447 110.093 75.8472 108.5C77.953 107.967 79.9758 107.497 81.7587 106.172C80.3312 103.917 79.1495 100.884 80.8762 100.718C81.3885 100.669 81.8313 101.044 81.9809 101.681C82.6813 104.647 84.9011 107.215 87.891 107.908C88.5781 108.068 89.0223 108.435 89.0149 109.083L89.0164 109.08Z" fill="#1C1C1E"/>
<path d="M71.4319 113.697C66.6029 115.013 60.9134 114.548 57.4941 110.546C64.5652 112.286 70.071 111.975 77.0606 110.362C75.4687 111.985 73.6295 113.099 71.4334 113.698L71.4319 113.697Z" fill="#FF3500"/>
<path d="M72.6736 119.283C70.0658 122.073 65.6973 123.298 62.3165 121.445C64.6666 118.82 69.6289 117.78 72.6736 119.283Z" fill="#FF3500"/>
</svg>
