<svg width="349" height="45" viewBox="0 0 349 45" fill="none" xmlns="http://www.w3.org/2000/svg">
<path d="M46.4 -1.52588e-05C48.704 -1.52588e-05 50.112 1.85599 49.472 4.09599L46.08 16H30.08L33.728 3.19999H29.504C28.288 3.19999 27.072 4.15998 26.752 5.31199L22.784 19.2H40.896C43.264 19.2 44.608 21.056 43.968 23.296L39.168 40.192C38.464 42.752 35.648 44.8 33.024 44.8H3.712C1.344 44.8 7.15256e-07 43.008 0.640001 40.768L4.928 25.6H20.928L16.384 41.6H20.608C21.824 41.6 23.04 40.704 23.36 39.552L28.224 22.4H10.112C7.744 22.4 6.4 20.608 7.04 18.368L10.944 4.67199C11.648 2.11198 14.4 -1.52588e-05 17.088 -1.52588e-05H46.4ZM77.441 -1.52588e-05H93.441L81.985 40.192C81.281 42.752 78.465 44.8 75.841 44.8H46.529C44.161 44.8 42.817 43.008 43.457 40.768L55.041 -1.52588e-05H71.041L59.201 41.6H63.425C64.641 41.6 65.857 40.704 66.177 39.552L77.441 -1.52588e-05ZM98.1065 -1.52588e-05H132.219C134.587 -1.52588e-05 135.931 1.85599 135.291 4.09599L130.491 20.992C129.787 23.552 126.971 25.6 124.347 25.6H108.923C107.707 25.6 106.491 26.56 106.171 27.712L101.307 44.8H85.3065L98.1065 -1.52588e-05ZM114.683 20.352L119.547 3.19999H115.323C114.107 3.19999 112.891 4.15998 112.571 5.31199L107.643 22.4H111.931C113.083 22.4 114.363 21.504 114.683 20.352ZM144.404 -1.52588e-05H173.716C176.02 -1.52588e-05 177.428 1.85599 176.788 4.09599L173.396 16H157.396L161.044 3.19999H156.82C155.604 3.19999 154.388 4.15998 154.068 5.31199L150.1 19.2H160.916L159.956 22.4H151.316C150.1 22.4 148.884 23.36 148.564 24.512L143.7 41.6H147.924C149.14 41.6 150.356 40.704 150.676 39.552L154.644 25.6H170.644L166.484 40.192C165.78 42.752 162.964 44.8 160.34 44.8H131.028C128.66 44.8 127.316 43.008 127.956 40.768L138.26 4.67199C138.964 2.11198 141.716 -1.52588e-05 144.404 -1.52588e-05ZM182.232 -1.52588e-05H216.344C218.712 -1.52588e-05 220.056 1.85599 219.416 4.09599L215.512 17.792C214.808 20.352 212.056 22.4 209.368 22.4H203.352C201.752 28.16 205.272 32.832 211.224 32.832L207.832 44.8H191.832L198.232 22.4H193.944C192.792 22.4 191.512 23.36 191.192 24.512L185.432 44.8H169.432L182.232 -1.52588e-05ZM199.704 17.152L203.672 3.19999H199.448C198.232 3.19999 197.016 4.15998 196.696 5.31199L192.728 19.2H196.952C198.168 19.2 199.384 18.304 199.704 17.152ZM258.844 -1.52588e-05C261.212 -1.52588e-05 262.556 1.85599 261.916 4.09599L258.012 17.792C257.308 20.352 254.556 22.4 251.868 22.4H248.22C246.94 26.944 249.692 30.592 254.364 30.592L251.612 40.192C250.908 42.752 248.156 44.8 245.468 44.8H211.932L224.732 -1.52588e-05H258.844ZM239.196 5.31199L235.228 19.2H239.452C240.668 19.2 241.884 18.304 242.204 17.152L246.172 3.19999H241.948C240.732 3.19999 239.516 4.15998 239.196 5.31199ZM235.804 39.552L240.668 22.4H236.444C235.292 22.4 234.012 23.36 233.692 24.512L228.828 41.6H233.052C234.268 41.6 235.484 40.704 235.804 39.552ZM301.405 -1.52588e-05C303.773 -1.52588e-05 305.117 1.85599 304.477 4.09599L292.893 44.8H276.893L283.293 22.4H279.005C277.853 22.4 276.573 23.36 276.253 24.512L270.493 44.8H254.493L265.949 4.67199C266.653 2.11198 269.405 -1.52588e-05 272.093 -1.52588e-05H301.405ZM284.765 17.152L288.733 3.19999H284.509C283.293 3.19999 282.077 4.15998 281.757 5.31199L277.789 19.2H282.013C283.229 19.2 284.445 18.304 284.765 17.152ZM310.357 -1.52588e-05H344.469C346.837 -1.52588e-05 348.181 1.85599 347.541 4.09599L343.637 17.792C342.933 20.352 340.181 22.4 337.493 22.4H331.477C329.877 28.16 333.397 32.832 339.349 32.832L335.957 44.8H319.957L326.357 22.4H322.069C320.917 22.4 319.637 23.36 319.317 24.512L313.557 44.8H297.557L310.357 -1.52588e-05ZM327.829 17.152L331.797 3.19999H327.573C326.357 3.19999 325.141 4.15998 324.821 5.31199L320.853 19.2H325.077C326.293 19.2 327.509 18.304 327.829 17.152Z" fill="white"/>
</svg>
