<svg width="203" height="23" viewBox="0 0 203 23" fill="none" xmlns="http://www.w3.org/2000/svg">
<path d="M4.5 4.5V0H18V4.5H4.5ZM13.5 18V13.5H4.5V9H0V4.5H4.5V9H13.5V13.5H18V18H13.5ZM0 22.5V18H13.5V22.5H0ZM31.5 22.5V18H27V0H31.5V18H40.5V22.5H31.5ZM40.5 18V0H45V18H40.5ZM54 22.5V0H67.5V4.5H72V9H67.5V13.5H58.5V22.5H54ZM58.5 9H67.32V4.5H58.5V9ZM81 22.5V0H94.5V4.5H85.5V9H94.5V13.5H85.5V18H94.5V22.5H81ZM103.5 22.5V0H117V4.5H121.5V9H117V18H121.5V22.5H117V18H112.5V13.5H108V22.5H103.5ZM108 9H116.82V4.5H108V9ZM130.5 22.5V0H144V4.5H148.5V18H144V22.5H130.5ZM135 9H143.82V4.5H135V9ZM135 18H143.82V13.5H135V18ZM157.5 22.5V4.5H162V0H171V4.5H175.5V22.5H171V13.5H162V22.5H157.5ZM162 9H171V4.68H162V9ZM184.5 22.5V0H198V4.5H202.5V9H198V18H202.5V22.5H198V18H193.5V13.5H189V22.5H184.5ZM189 9H197.82V4.5H189V9Z" fill="white"/>
</svg>
